<svg xmlns="http://www.w3.org/2000/svg" version="1.1" xmlns:xlink="http://www.w3.org/1999/xlink" xmlns:svgjs="http://svgjs.dev/svgjs" width="1500" height="935" viewBox="0 0 1500 935"><g transform="matrix(1,0,0,1,-0.9090909090909918,0.3785425101214628)"><svg viewBox="0 0 396 247" data-background-color="#ffffff" preserveAspectRatio="xMidYMid meet" height="935" width="1500" xmlns="http://www.w3.org/2000/svg" xmlns:xlink="http://www.w3.org/1999/xlink"><g id="tight-bounds" transform="matrix(1,0,0,1,0.2400000000000091,-0.09999999999999432)"><svg viewBox="0 0 395.52 247.2" height="247.2" width="395.52"><g><svg></svg></g><g><svg viewBox="0 0 395.52 247.2" height="247.2" width="395.52"><g transform="matrix(1,0,0,1,75.54432000000001,109.12436954314721)"><svg viewBox="0 0 244.43135999999996 28.95126091370558" height="28.95126091370558" width="244.43135999999996"><g><svg viewBox="0 0 244.43135999999996 28.95126091370558" height="28.95126091370558" width="244.43135999999996"><g><svg viewBox="0 0 244.43135999999996 28.95126091370558" height="28.95126091370558" width="244.43135999999996"><g id="textblocktransform"><svg viewBox="0 0 244.43135999999996 28.95126091370558" height="28.95126091370558" width="244.43135999999996" id="textblock"><g><svg viewBox="0 0 244.43135999999996 28.95126091370558" height="28.95126091370558" width="244.43135999999996"><g transform="matrix(1,0,0,1,0,0)"><svg width="244.43135999999996" viewBox="1.7999999999999998 -28 236.36999999999998 28" height="28.95126091370558" data-palette-color="#000000"><path d="M18-24Q18.2-23.2 18.2-22L18.2-22Q18.2-20.85 18-20L18-20Q18.2-19.2 18.2-18L18.2-18Q18.2-16.85 18-16L18-16Q18.2-15.2 18.2-14L18.2-14Q18.2-12.85 18-12L18-12Q18.2-11.2 18.2-10L18.2-10Q18.2-8.85 18-8L18-8Q18.2-7.2 18.2-6L18.2-6Q18.2-4.85 18-4L18-4Q18.2-3.2 18.2-2L18.2-2Q18.2-0.85 18 0L18 0 14 0Q13.8-0.85 13.8-2L13.8-2Q13.8-3.2 14-4L14-4Q13.8-4.85 13.8-6L13.8-6Q13.8-7.2 14-8L14-8Q13.8-8.85 13.8-10L13.8-10Q13.8-11.2 14-12L14-12 6-12Q6.2-11.2 6.2-10L6.2-10Q6.2-8.85 6-8L6-8Q6.2-7.2 6.2-6L6.2-6Q6.2-4.85 6-4L6-4Q6.2-3.2 6.2-2L6.2-2Q6.2-0.85 6 0L6 0 2 0Q1.8-0.85 1.8-2L1.8-2Q1.8-3.2 2-4L2-4Q1.8-4.85 1.8-6L1.8-6Q1.8-7.2 2-8L2-8Q1.8-8.85 1.8-10L1.8-10Q1.8-11.2 2-12L2-12Q1.8-12.85 1.8-14L1.8-14Q1.8-15.2 2-16L2-16Q1.8-16.85 1.8-18L1.8-18Q1.8-19.2 2-20L2-20Q1.8-20.85 1.8-22L1.8-22Q1.8-23.2 2-24L2-24Q1.8-24.85 1.8-26L1.8-26Q1.8-27.2 2-28L2-28 6-28Q6.2-27.2 6.2-26L6.2-26Q6.2-24.85 6-24L6-24Q6.2-23.2 6.2-22L6.2-22Q6.2-20.85 6-20L6-20Q6.2-19.2 6.2-18L6.2-18Q6.2-16.85 6-16L6-16 14-16Q13.8-16.85 13.8-18L13.8-18Q13.8-19.2 14-20L14-20Q13.8-20.85 13.8-22L13.8-22Q13.8-23.2 14-24L14-24Q13.8-24.85 13.8-26L13.8-26Q13.8-27.2 14-28L14-28 18-28Q18.2-27.2 18.2-26L18.2-26Q18.2-24.85 18-24L18-24ZM38-16Q38.2-15.2 38.2-14L38.2-14Q38.2-12.85 38-12L38-12Q38.2-11.2 38.2-10L38.2-10Q38.2-8.85 38-8L38-8 36.5-8Q36.7-7.2 36.7-6L36.7-6Q36.7-4.85 36.5-4L36.5-4 34-4Q34.2-3.2 34.2-2L34.2-2Q34.2-0.85 34 0L34 0 26 0Q25.8-0.85 25.8-2L25.8-2Q25.8-3.2 26-4L26-4 23.5-4Q23.3-4.85 23.3-6L23.3-6Q23.3-7.2 23.5-8L23.5-8 22-8Q21.8-8.85 21.8-10L21.8-10Q21.8-11.2 22-12L22-12Q21.8-12.85 21.8-14L21.8-14Q21.8-15.2 22-16L22-16Q21.8-16.85 21.8-18L21.8-18Q21.8-19.2 22-20L22-20 23.5-20Q23.3-20.85 23.3-22L23.3-22Q23.3-23.2 23.5-24L23.5-24 26-24Q25.8-24.85 25.8-26L25.8-26Q25.8-27.2 26-28L26-28 34-28Q34.2-27.2 34.2-26L34.2-26Q34.2-24.85 34-24L34-24 36.5-24Q36.7-23.2 36.7-22L36.7-22Q36.7-20.85 36.5-20L36.5-20 38-20Q38.2-19.2 38.2-18L38.2-18Q38.2-16.85 38-16L38-16ZM34-8Q33.8-8.85 33.8-10L33.8-10Q33.8-11.2 34-12L34-12Q33.8-12.85 33.8-14L33.8-14Q33.8-15.2 34-16L34-16Q33.8-16.85 33.8-18L33.8-18Q33.8-19.2 34-20L34-20 32.5-20Q32.3-20.85 32.3-22L32.3-22Q32.3-23.2 32.5-24L32.5-24 27.5-24Q27.7-23.2 27.7-22L27.7-22Q27.7-20.85 27.5-20L27.5-20 26-20Q26.2-19.2 26.2-18L26.2-18Q26.2-16.85 26-16L26-16Q26.2-15.2 26.2-14L26.2-14Q26.2-12.85 26-12L26-12Q26.2-11.2 26.2-10L26.2-10Q26.2-8.85 26-8L26-8 27.5-8Q27.7-7.2 27.7-6L27.7-6Q27.7-4.85 27.5-4L27.5-4 32.5-4Q32.3-4.85 32.3-6L32.3-6Q32.3-7.2 32.5-8L32.5-8 34-8ZM58-12Q58.2-11.2 58.2-10L58.2-10Q58.2-8.85 58-8L58-8Q58.2-7.2 58.2-6L58.2-6Q58.2-4.85 58-4L58-4 56-4Q56.2-3.2 56.2-2L56.2-2Q56.2-0.85 56 0L56 0 44 0Q43.8-0.85 43.8-2L43.8-2Q43.8-3.2 44-4L44-4 42-4Q41.8-4.85 41.8-6L41.8-6Q41.8-7.2 42-8L42-8 46-8Q46.2-7.2 46.2-6L46.2-6Q46.2-4.85 46-4L46-4 54-4Q53.8-4.85 53.8-6L53.8-6Q53.8-7.2 54-8L54-8Q53.8-8.85 53.8-10L53.8-10Q53.8-11.2 54-12L54-12 44-12Q43.8-12.85 43.8-14L43.8-14Q43.8-15.2 44-16L44-16 42-16Q41.8-16.85 41.8-18L41.8-18Q41.8-19.2 42-20L42-20Q41.8-20.85 41.8-22L41.8-22Q41.8-23.2 42-24L42-24 44-24Q43.8-24.85 43.8-26L43.8-26Q43.8-27.2 44-28L44-28 56-28Q56.2-27.2 56.2-26L56.2-26Q56.2-24.85 56-24L56-24 58-24Q58.2-23.2 58.2-22L58.2-22Q58.2-20.85 58-20L58-20 54-20Q53.8-20.85 53.8-22L53.8-22Q53.8-23.2 54-24L54-24 46-24Q46.2-23.2 46.2-22L46.2-22Q46.2-20.85 46-20L46-20Q46.2-19.2 46.2-18L46.2-18Q46.2-16.85 46-16L46-16 56-16Q56.2-15.2 56.2-14L56.2-14Q56.2-12.85 56-12L56-12 58-12ZM77.99-12Q78.19-11.2 78.19-10L78.19-10Q78.19-8.85 77.99-8L77.99-8Q78.19-7.2 78.19-6L78.19-6Q78.19-4.85 77.99-4L77.99-4 75.99-4Q76.19-3.2 76.19-2L76.19-2Q76.19-0.85 75.99 0L75.99 0 63.99 0Q63.79-0.85 63.79-2L63.79-2Q63.79-3.2 63.99-4L63.99-4 61.99-4Q61.79-4.85 61.79-6L61.79-6Q61.79-7.2 61.99-8L61.99-8 65.99-8Q66.19-7.2 66.19-6L66.19-6Q66.19-4.85 65.99-4L65.99-4 73.99-4Q73.79-4.85 73.79-6L73.79-6Q73.79-7.2 73.99-8L73.99-8Q73.79-8.85 73.79-10L73.79-10Q73.79-11.2 73.99-12L73.99-12 63.99-12Q63.79-12.85 63.79-14L63.79-14Q63.79-15.2 63.99-16L63.99-16 61.99-16Q61.79-16.85 61.79-18L61.79-18Q61.79-19.2 61.99-20L61.99-20Q61.79-20.85 61.79-22L61.79-22Q61.79-23.2 61.99-24L61.99-24 63.99-24Q63.79-24.85 63.79-26L63.79-26Q63.79-27.2 63.99-28L63.99-28 75.99-28Q76.19-27.2 76.19-26L76.19-26Q76.19-24.85 75.99-24L75.99-24 77.99-24Q78.19-23.2 78.19-22L78.19-22Q78.19-20.85 77.99-20L77.99-20 73.99-20Q73.79-20.85 73.79-22L73.79-22Q73.79-23.2 73.99-24L73.99-24 65.99-24Q66.19-23.2 66.19-22L66.19-22Q66.19-20.85 65.99-20L65.99-20Q66.19-19.2 66.19-18L66.19-18Q66.19-16.85 65.99-16L65.99-16 75.99-16Q76.19-15.2 76.19-14L76.19-14Q76.19-12.85 75.99-12L75.99-12 77.99-12ZM98.19-6Q98.19-4.85 97.99-4L97.99-4Q98.19-3.2 98.19-2L98.19-2Q98.19-0.85 97.99 0L97.99 0 93.99 0Q93.79-0.85 93.79-2L93.79-2Q93.79-3.2 93.99-4L93.99-4Q93.79-4.85 93.79-6L93.79-6Q93.79-7.2 93.99-8L93.99-8 85.99-8Q86.19-7.2 86.19-6L86.19-6Q86.19-4.85 85.99-4L85.99-4Q86.19-3.2 86.19-2L86.19-2Q86.19-0.85 85.99 0L85.99 0 81.99 0Q81.79-0.85 81.79-2L81.79-2Q81.79-3.2 81.99-4L81.99-4Q81.79-4.85 81.79-6L81.79-6Q81.79-7.2 81.99-8L81.99-8 83.49-8Q83.29-8.85 83.29-10L83.29-10Q83.29-11.2 83.49-12L83.49-12Q83.29-12.85 83.29-14L83.29-14Q83.29-15.2 83.49-16L83.49-16 84.49-16Q84.29-16.85 84.29-18L84.29-18Q84.29-19.2 84.49-20L84.49-20 85.99-20Q85.79-20.85 85.79-22L85.79-22Q85.79-23.2 85.99-24L85.99-24 86.99-24Q86.79-24.85 86.79-26L86.79-26Q86.79-27.2 86.99-28L86.99-28 92.99-28Q93.19-27.2 93.19-26L93.19-26Q93.19-24.85 92.99-24L92.99-24 93.99-24Q94.19-23.2 94.19-22L94.19-22Q94.19-20.85 93.99-20L93.99-20 95.49-20Q95.69-19.2 95.69-18L95.69-18Q95.69-16.85 95.49-16L95.49-16 96.49-16Q96.69-15.2 96.69-14L96.69-14Q96.69-12.85 96.49-12L96.49-12Q96.69-11.2 96.69-10L96.69-10Q96.69-8.85 96.49-8L96.49-8 97.99-8Q98.19-7.2 98.19-6L98.19-6ZM92.49-12Q92.29-12.85 92.29-14L92.29-14Q92.29-15.2 92.49-16L92.49-16 91.49-16Q91.29-16.85 91.29-18L91.29-18Q91.29-19.2 91.49-20L91.49-20 88.49-20Q88.69-19.2 88.69-18L88.69-18Q88.69-16.85 88.49-16L88.49-16 87.49-16Q87.69-15.2 87.69-14L87.69-14Q87.69-12.85 87.49-12L87.49-12 92.49-12ZM117.99-24Q118.19-23.2 118.19-22L118.19-22Q118.19-20.85 117.99-20L117.99-20Q118.19-19.2 118.19-18L118.19-18Q118.19-16.85 117.99-16L117.99-16Q118.19-15.2 118.19-14L118.19-14Q118.19-12.85 117.99-12L117.99-12Q118.19-11.2 118.19-10L118.19-10Q118.19-8.85 117.99-8L117.99-8Q118.19-7.2 118.19-6L118.19-6Q118.19-4.85 117.99-4L117.99-4Q118.19-3.2 118.19-2L118.19-2Q118.19-0.85 117.99 0L117.99 0 113.99 0Q113.79-0.85 113.79-2L113.79-2Q113.79-3.2 113.99-4L113.99-4Q113.79-4.85 113.79-6L113.79-6Q113.79-7.2 113.99-8L113.99-8Q113.79-8.85 113.79-10L113.79-10Q113.79-11.2 113.99-12L113.99-12Q113.79-12.85 113.79-14L113.79-14Q113.79-15.2 113.99-16L113.99-16Q113.79-16.85 113.79-18L113.79-18Q113.79-19.2 113.99-20L113.99-20 112.49-20Q112.69-19.2 112.69-18L112.69-18Q112.69-16.85 112.49-16L112.49-16Q112.69-15.2 112.69-14L112.69-14Q112.69-12.85 112.49-12L112.49-12 111.49-12Q111.69-11.2 111.69-10L111.69-10Q111.69-8.85 111.49-8L111.49-8Q111.69-7.2 111.69-6L111.69-6Q111.69-4.85 111.49-4L111.49-4 108.49-4Q108.29-4.85 108.29-6L108.29-6Q108.29-7.2 108.49-8L108.49-8Q108.29-8.85 108.29-10L108.29-10Q108.29-11.2 108.49-12L108.49-12 107.49-12Q107.29-12.85 107.29-14L107.29-14Q107.29-15.2 107.49-16L107.49-16Q107.29-16.85 107.29-18L107.29-18Q107.29-19.2 107.49-20L107.49-20 105.99-20Q106.19-19.2 106.19-18L106.19-18Q106.19-16.85 105.99-16L105.99-16Q106.19-15.2 106.19-14L106.19-14Q106.19-12.85 105.99-12L105.99-12Q106.19-11.2 106.19-10L106.19-10Q106.19-8.85 105.99-8L105.99-8Q106.19-7.2 106.19-6L106.19-6Q106.19-4.85 105.99-4L105.99-4Q106.19-3.2 106.19-2L106.19-2Q106.19-0.85 105.99 0L105.99 0 101.99 0Q101.79-0.85 101.79-2L101.79-2Q101.79-3.2 101.99-4L101.99-4Q101.79-4.85 101.79-6L101.79-6Q101.79-7.2 101.99-8L101.99-8Q101.79-8.85 101.79-10L101.79-10Q101.79-11.2 101.99-12L101.99-12Q101.79-12.85 101.79-14L101.79-14Q101.79-15.2 101.99-16L101.99-16Q101.79-16.85 101.79-18L101.79-18Q101.79-19.2 101.99-20L101.99-20Q101.79-20.85 101.79-22L101.79-22Q101.79-23.2 101.99-24L101.99-24Q101.79-24.85 101.79-26L101.79-26Q101.79-27.2 101.99-28L101.99-28 106.99-28Q107.19-27.2 107.19-26L107.19-26Q107.19-24.85 106.99-24L106.99-24 108.49-24Q108.69-23.2 108.69-22L108.69-22Q108.69-20.85 108.49-20L108.49-20 109.24-20Q109.44-19.2 109.44-18L109.44-18Q109.44-16.85 109.24-16L109.24-16 110.74-16Q110.54-16.85 110.54-18L110.54-18Q110.54-19.2 110.74-20L110.74-20 111.49-20Q111.29-20.85 111.29-22L111.29-22Q111.29-23.2 111.49-24L111.49-24 112.99-24Q112.79-24.85 112.79-26L112.79-26Q112.79-27.2 112.99-28L112.99-28 117.99-28Q118.19-27.2 118.19-26L118.19-26Q118.19-24.85 117.99-24L117.99-24ZM155.98-16Q156.18-15.2 156.18-14L156.18-14Q156.18-12.85 155.98-12L155.98-12 147.98-12Q148.18-11.2 148.18-10L148.18-10Q148.18-8.85 147.98-8L147.98-8Q148.18-7.2 148.18-6L148.18-6Q148.18-4.85 147.98-4L147.98-4Q148.18-3.2 148.18-2L148.18-2Q148.18-0.85 147.98 0L147.98 0 143.98 0Q143.78-0.85 143.78-2L143.78-2Q143.78-3.2 143.98-4L143.98-4Q143.78-4.85 143.78-6L143.78-6Q143.78-7.2 143.98-8L143.98-8Q143.78-8.85 143.78-10L143.78-10Q143.78-11.2 143.98-12L143.98-12Q143.78-12.85 143.78-14L143.78-14Q143.78-15.2 143.98-16L143.98-16Q143.78-16.85 143.78-18L143.78-18Q143.78-19.2 143.98-20L143.98-20Q143.78-20.85 143.78-22L143.78-22Q143.78-23.2 143.98-24L143.98-24Q143.78-24.85 143.78-26L143.78-26Q143.78-27.2 143.98-28L143.98-28 155.98-28Q156.18-27.2 156.18-26L156.18-26Q156.18-24.85 155.98-24L155.98-24 147.98-24Q148.18-23.2 148.18-22L148.18-22Q148.18-20.85 147.98-20L147.98-20Q148.18-19.2 148.18-18L148.18-18Q148.18-16.85 147.98-16L147.98-16 155.98-16ZM178.18-6Q178.18-4.85 177.98-4L177.98-4Q178.18-3.2 178.18-2L178.18-2Q178.18-0.85 177.98 0L177.98 0 173.98 0Q173.78-0.85 173.78-2L173.78-2Q173.78-3.2 173.98-4L173.98-4Q173.78-4.85 173.78-6L173.78-6Q173.78-7.2 173.98-8L173.98-8 165.98-8Q166.18-7.2 166.18-6L166.18-6Q166.18-4.85 165.98-4L165.98-4Q166.18-3.2 166.18-2L166.18-2Q166.18-0.85 165.98 0L165.98 0 161.98 0Q161.78-0.85 161.78-2L161.78-2Q161.78-3.2 161.98-4L161.98-4Q161.78-4.85 161.78-6L161.78-6Q161.78-7.2 161.98-8L161.98-8 163.48-8Q163.28-8.85 163.28-10L163.28-10Q163.28-11.2 163.48-12L163.48-12Q163.28-12.85 163.28-14L163.28-14Q163.28-15.2 163.48-16L163.48-16 164.48-16Q164.28-16.85 164.28-18L164.28-18Q164.28-19.2 164.48-20L164.48-20 165.98-20Q165.78-20.85 165.78-22L165.78-22Q165.78-23.2 165.98-24L165.98-24 166.98-24Q166.78-24.85 166.78-26L166.78-26Q166.78-27.2 166.98-28L166.98-28 172.98-28Q173.18-27.2 173.18-26L173.18-26Q173.18-24.85 172.98-24L172.98-24 173.98-24Q174.18-23.2 174.18-22L174.18-22Q174.18-20.85 173.98-20L173.98-20 175.48-20Q175.68-19.2 175.68-18L175.68-18Q175.68-16.85 175.48-16L175.48-16 176.48-16Q176.68-15.2 176.68-14L176.68-14Q176.68-12.85 176.48-12L176.48-12Q176.68-11.2 176.68-10L176.68-10Q176.68-8.85 176.48-8L176.48-8 177.98-8Q178.18-7.2 178.18-6L178.18-6ZM172.48-12Q172.28-12.85 172.28-14L172.28-14Q172.28-15.2 172.48-16L172.48-16 171.48-16Q171.28-16.85 171.28-18L171.28-18Q171.28-19.2 171.48-20L171.48-20 168.48-20Q168.68-19.2 168.68-18L168.68-18Q168.68-16.85 168.48-16L168.48-16 167.48-16Q167.68-15.2 167.68-14L167.68-14Q167.68-12.85 167.48-12L167.48-12 172.48-12ZM196.48-4L197.98-4Q198.18-3.2 198.18-2L198.18-2Q198.18-0.85 197.98 0L197.98 0 193.98 0Q193.78-0.85 193.78-2L193.78-2Q193.78-3.2 193.98-4L193.98-4 192.48-4Q192.28-4.85 192.28-6L192.28-6Q192.28-7.2 192.48-8L192.48-8 190.98-8Q190.78-8.85 190.78-10L190.78-10Q190.78-11.2 190.98-12L190.98-12 185.98-12Q186.18-11.2 186.18-10L186.18-10Q186.18-8.85 185.98-8L185.98-8Q186.18-7.2 186.18-6L186.18-6Q186.18-4.85 185.98-4L185.98-4Q186.18-3.2 186.18-2L186.18-2Q186.18-0.85 185.98 0L185.98 0 181.98 0Q181.78-0.85 181.78-2L181.78-2Q181.78-3.2 181.98-4L181.98-4Q181.78-4.85 181.78-6L181.78-6Q181.78-7.2 181.98-8L181.98-8Q181.78-8.85 181.78-10L181.78-10Q181.78-11.2 181.98-12L181.98-12Q181.78-12.85 181.78-14L181.78-14Q181.78-15.2 181.98-16L181.98-16Q181.78-16.85 181.78-18L181.78-18Q181.78-19.2 181.98-20L181.98-20Q181.78-20.85 181.78-22L181.78-22Q181.78-23.2 181.98-24L181.98-24Q181.78-24.85 181.78-26L181.78-26Q181.78-27.2 181.98-28L181.98-28 195.98-28Q196.18-27.2 196.18-26L196.18-26Q196.18-24.85 195.98-24L195.98-24 197.98-24Q198.18-23.2 198.18-22L198.18-22Q198.18-20.85 197.98-20L197.98-20 196.98-20Q197.18-19.2 197.18-18L197.18-18Q197.18-16.85 196.98-16L196.98-16 193.98-16Q194.18-15.2 194.18-14L194.18-14Q194.18-12.85 193.98-12L193.98-12 194.98-12Q195.18-11.2 195.18-10L195.18-10Q195.18-8.85 194.98-8L194.98-8 196.48-8Q196.68-7.2 196.68-6L196.68-6Q196.68-4.85 196.48-4L196.48-4ZM192.98-16Q192.78-16.85 192.78-18L192.78-18Q192.78-19.2 192.98-20L192.98-20Q192.78-20.85 192.78-22L192.78-22Q192.78-23.2 192.98-24L192.98-24 185.98-24Q186.18-23.2 186.18-22L186.18-22Q186.18-20.85 185.98-20L185.98-20Q186.18-19.2 186.18-18L186.18-18Q186.18-16.85 185.98-16L185.98-16 192.98-16ZM211.98-4L214.98-4Q215.18-3.2 215.18-2L215.18-2Q215.18-0.85 214.98 0L214.98 0 204.98 0Q204.78-0.85 204.78-2L204.78-2Q204.78-3.2 204.98-4L204.98-4 207.98-4Q207.78-4.85 207.78-6L207.78-6Q207.78-7.2 207.98-8L207.98-8Q207.78-8.85 207.78-10L207.78-10Q207.78-11.2 207.98-12L207.98-12Q207.78-12.85 207.78-14L207.78-14Q207.78-15.2 207.98-16L207.98-16Q207.78-16.85 207.78-18L207.78-18Q207.78-19.2 207.98-20L207.98-20Q207.78-20.85 207.78-22L207.78-22Q207.78-23.2 207.98-24L207.98-24 204.98-24Q204.78-24.85 204.78-26L204.78-26Q204.78-27.2 204.98-28L204.98-28 214.98-28Q215.18-27.2 215.18-26L215.18-26Q215.18-24.85 214.98-24L214.98-24 211.98-24Q212.18-23.2 212.18-22L212.18-22Q212.18-20.85 211.98-20L211.98-20Q212.18-19.2 212.18-18L212.18-18Q212.18-16.85 211.98-16L211.98-16Q212.18-15.2 212.18-14L212.18-14Q212.18-12.85 211.98-12L211.98-12Q212.18-11.2 212.18-10L212.18-10Q212.18-8.85 211.98-8L211.98-8Q212.18-7.2 212.18-6L212.18-6Q212.18-4.85 211.98-4L211.98-4ZM237.97-16Q238.17-15.2 238.17-14L238.17-14Q238.17-12.85 237.97-12L237.97-12Q238.17-11.2 238.17-10L238.17-10Q238.17-8.85 237.97-8L237.97-8 235.97-8Q236.17-7.2 236.17-6L236.17-6Q236.17-4.85 235.97-4L235.97-4 233.97-4Q234.17-3.2 234.17-2L234.17-2Q234.17-0.85 233.97 0L233.97 0 221.97 0Q221.77-0.85 221.77-2L221.77-2Q221.77-3.2 221.97-4L221.97-4Q221.77-4.85 221.77-6L221.77-6Q221.77-7.2 221.97-8L221.97-8Q221.77-8.85 221.77-10L221.77-10Q221.77-11.2 221.97-12L221.97-12Q221.77-12.85 221.77-14L221.77-14Q221.77-15.2 221.97-16L221.97-16Q221.77-16.85 221.77-18L221.77-18Q221.77-19.2 221.97-20L221.97-20Q221.77-20.85 221.77-22L221.77-22Q221.77-23.2 221.97-24L221.97-24Q221.77-24.85 221.77-26L221.77-26Q221.77-27.2 221.97-28L221.97-28 233.97-28Q234.17-27.2 234.17-26L234.17-26Q234.17-24.85 233.97-24L233.97-24 235.97-24Q236.17-23.2 236.17-22L236.17-22Q236.17-20.85 235.97-20L235.97-20 237.97-20Q238.17-19.2 238.17-18L238.17-18Q238.17-16.85 237.97-16L237.97-16ZM233.97-8Q233.77-8.85 233.77-10L233.77-10Q233.77-11.2 233.97-12L233.97-12Q233.77-12.85 233.77-14L233.77-14Q233.77-15.2 233.97-16L233.97-16Q233.77-16.85 233.77-18L233.77-18Q233.77-19.2 233.97-20L233.97-20 231.97-20Q231.77-20.85 231.77-22L231.77-22Q231.77-23.2 231.97-24L231.97-24 225.97-24Q226.17-23.2 226.17-22L226.17-22Q226.17-20.85 225.97-20L225.97-20Q226.17-19.2 226.17-18L226.17-18Q226.17-16.85 225.97-16L225.97-16Q226.17-15.2 226.17-14L226.17-14Q226.17-12.85 225.97-12L225.97-12Q226.17-11.2 226.17-10L226.17-10Q226.17-8.85 225.97-8L225.97-8Q226.17-7.2 226.17-6L226.17-6Q226.17-4.85 225.97-4L225.97-4 231.97-4Q231.77-4.85 231.77-6L231.77-6Q231.77-7.2 231.97-8L231.97-8 233.97-8Z" opacity="1" transform="matrix(1,0,0,1,0,0)" fill="#000000" class="wordmark-text-0" data-fill-palette-color="primary" id="text-0"></path></svg></g></svg></g></svg></g></svg></g></svg></g></svg></g><path d="M174.92 103.124L174.92 38.802 5.323 38.802 5.323 208.398 174.92 208.398 174.92 144.076 172.309 144.076 172.309 205.787 7.934 205.787 7.934 41.413 172.309 41.413 172.309 103.124Z" fill="#000000" stroke="transparent" data-fill-palette-color="tertiary"></path></svg></g><defs></defs></svg><rect width="395.52" height="247.2" fill="none" stroke="none" visibility="hidden"></rect></g></svg></g></svg>